<svg width="541" height="377" viewBox="0 0 541 377" fill="none" xmlns="http://www.w3.org/2000/svg">
<path d="M469.165 68.7821C471.05 72.03 483.021 89.0832 485.942 92.2565C477.246 96.4163 467.019 102.773 459.249 107.022C457.252 104.628 455.563 91.644 453.84 88.6753C449.275 91.3359 444.821 93.8729 440.427 96.5098C435.722 99.3331 431.668 98.347 428.271 94.382C418.063 82.467 410.959 68.9897 408.391 52.6584C421.891 45.0463 430.935 52.266 439.415 62.2659C440.307 59.0092 439.98 56.8039 440.576 54.8854C441.284 52.6052 442.574 48.9687 443.989 48.7809C446.554 48.4403 449.969 49.5666 451.95 51.3109C453.598 52.7614 454.384 55.992 454.33 58.4072C454.234 62.6767 456.241 64.9072 459.817 66.2131C462.864 67.3256 467.534 65.9719 469.165 68.7821Z" fill="#FFB6B6"/>
<path d="M469.16 68.7536C465.964 68.2368 462.847 67.3178 459.8 66.2054C456.224 64.8996 454.218 62.6692 454.314 58.4C454.368 55.9849 453.581 52.7545 451.934 51.304C449.953 49.5598 446.538 48.4336 443.973 48.7742C442.558 48.962 441.269 52.5983 440.561 54.8784C439.965 56.7967 440.292 59.0019 439.399 62.2584C430.92 52.2591 421.877 45.0398 408.265 52.1429C404.224 51.034 400.462 49.9099 396.973 48.2214C394.614 47.08 392.638 45.1439 389.086 42.5286C393.694 40.9952 396.561 40.041 400.097 38.8642C398.9 37.4633 398.269 36.3745 397.339 35.697C392.769 32.3665 394.397 29.2085 398 26.9252C412.063 18.0159 427.447 14.5127 443.44 19.6165C463.068 25.8803 472.186 44.0405 469.16 68.7536Z" fill="#2D3959"/>
<path d="M270.5 325.165C121.107 325.165 6.10352e-05 336.698 6.10352e-05 350.925C6.10352e-05 365.152 121.107 376.686 270.5 376.686C419.893 376.686 541 365.152 541 350.925C541 336.698 419.893 325.165 270.5 325.165Z" fill="#B3B3B3"/>
<path d="M173.523 288.616C176.442 296.346 178.853 304.099 181.34 312.341C175.137 314.265 168.857 315.701 162.109 317.366C159.107 316.114 156.586 314.611 154.037 313.156C149.744 310.707 148.8 305.818 151.435 301.936C152.874 299.816 153.489 297.135 154.53 294.227C160.728 292.044 166.872 290.341 173.523 288.616Z" fill="#FFB6B6"/>
<path d="M162.765 290.005C162.765 291.908 166.307 288.54 168.15 288.153C200.931 281.274 234.164 259.75 266.918 252.75C269.435 252.212 271.622 250.126 274.517 248.883C278.882 248.98 282.774 249.445 286.489 248.834C296.227 247.234 305.196 255.284 314.973 253.842C320.639 253.181 325.783 252.799 330.433 253.271C368.994 264.503 330.383 253.484 368.897 264.428C370.344 264.631 371.867 264.279 373.355 264.184C373.64 266.066 373.925 267.948 374.346 270.726C385.821 270.965 397.29 271.578 408.736 271.287C414.525 271.14 417.898 272.614 420.92 277.926C435.362 303.307 457.749 320.26 482.447 334.586C483.737 335.335 485.002 336.127 486.583 337.258C467.65 348.534 447.264 346.767 427.131 341.861C408.729 337.378 390.728 331.241 371.661 325.486C365.993 323.201 361.215 321.262 355.941 319.178C340.08 313.538 324.494 309.977 307.646 313.646C302.63 315.197 298.054 316.717 293.479 318.237C283.014 320.026 272.594 322.92 262.074 323.35C245.299 324.037 228.456 323.18 211.645 322.792C199.722 322.517 187.794 322.144 175.891 321.43C166.427 320.862 166.442 320.604 165.257 310.576C164.263 301.515 162.765 281.884 162.765 290.005V290.005Z" fill="#1E2841"/>
<path d="M399.94 263.4C388.227 256.993 376.496 250.619 364.824 244.138C363.261 243.271 361.997 241.866 360.655 239.873C361.302 233.314 361.888 227.591 362.475 221.869C362.862 217.433 366.241 217.546 369.102 218.071C382.256 220.485 395.502 222.546 408.47 225.813C413.768 227.148 415.397 227.869 419.27 229.025C423.984 230.573 430.21 231.483 430.78 233.453C433.75 243.723 426.732 255.413 429.25 265.673C429.98 268.648 429.575 271.904 429.048 275.421C418.917 271.674 409.429 267.537 399.94 263.4V263.4Z" fill="#D0D0D0"/>
<path d="M364.919 220.647C364.181 226.299 362.912 231.908 361.419 237.901C351.728 241.783 342.141 244.588 331.897 242.69C329.645 242.272 327.488 241.339 325.288 240.644C325.363 240.013 325.438 239.383 325.513 238.753C328.271 238.367 331.146 238.341 333.75 237.484C335.941 236.763 337.816 235.076 339.831 233.817C337.671 232.558 335.613 230.464 333.333 230.187C324.013 229.058 319.416 235.908 314.423 242.503C313.22 241.33 312.2 239.836 311.162 238.316C318.636 225.947 329.432 219.902 343.961 220.497C350.76 220.775 357.579 220.582 364.919 220.647L364.919 220.647Z" fill="#F4ACAC"/>
<path d="M154.748 321.849C156.457 321.019 158.098 319.985 159.885 319.389C191.658 308.777 223.467 298.272 255.2 287.543C257.639 286.718 259.572 284.394 262.305 282.825C266.652 282.419 270.571 282.432 274.192 281.397C283.681 278.685 293.041 275.516 302.587 272.957C306.091 277.689 310.073 277.261 314.387 275.005C319.344 272.414 324.16 269.102 331.857 271.293C325.798 274.652 320.886 277.376 314.829 280.734C317.166 281.505 318.111 282.181 318.652 281.942C331.097 276.436 344.235 276.949 357.368 277.257C358.828 277.292 360.302 276.767 361.769 276.501C362.268 278.338 362.767 280.174 363.504 282.885C374.931 281.8 386.393 281.087 397.73 279.479C403.464 278.665 406.984 279.742 410.596 284.67C427.855 308.217 452.038 322.477 478.217 333.862C479.585 334.457 480.932 335.098 482.632 336.04C465.119 349.423 444.666 350.017 424.103 347.464C405.309 345.132 386.723 341.111 367.122 337.592C361.229 335.974 356.26 334.599 350.783 333.138C334.38 329.363 318.488 327.622 302.173 333.208C297.368 335.327 292.997 337.365 288.626 339.402C278.436 342.385 268.418 346.461 258.017 348.101C241.433 350.716 224.602 351.807 207.859 353.359C195.984 354.46 184.092 355.464 172.186 356.127C162.719 356.654 162.705 356.395 160.376 346.571C158.349 337.685 156.548 329.767 154.748 321.849V321.849Z" fill="#2C3859"/>
<path d="M272.558 237.149L270.587 246.948L391.528 271.377L393.499 261.578L272.558 237.149Z" fill="#DCDCDC"/>
<path d="M252.242 139.17C251.672 136.633 249.156 135.04 246.624 135.611C244.092 136.183 242.502 138.704 243.073 141.241L265.097 239.154C265.667 241.691 268.183 243.285 270.715 242.713C273.247 242.141 274.837 239.62 274.266 237.083L252.242 139.17Z" fill="#DCDCDC"/>
<path d="M333.949 252.824L277.879 242.197L277.243 245.57L333.313 256.197L333.949 252.824Z" fill="black"/>
<path d="M349.155 255.891L339.574 254.075L338.947 257.398L348.528 259.214L349.155 255.891Z" fill="black"/>
<path d="M347.873 257.289L340.094 255.815L339.881 256.943L347.66 258.417L347.873 257.289Z" fill="white"/>
<path d="M377.159 262.398L355.99 258.386L355.74 259.707L376.91 263.719L377.159 262.398Z" fill="#800000"/>
<path d="M302.972 272.733C310.832 262.856 319.988 255.497 334.194 255.405C343.589 257.109 354.27 260.632 362.64 262.32C363.244 267.253 362.664 270.236 363.274 275.665C361.812 276.427 359.213 277.067 357.753 277.033C344.62 276.725 331.482 276.212 319.036 281.717C318.495 281.957 317.551 281.281 315.214 280.51C321.271 277.151 326.183 274.428 332.242 271.069C324.544 268.878 319.728 272.189 314.772 274.781C310.458 277.037 306.475 277.464 302.972 272.733V272.733Z" fill="#FFB6B6"/>
<path d="M522.23 80.7587C523.496 80.5955 524.778 80.5082 526.027 80.2573C537.187 78.0153 537.98 77.9446 538.858 89.1984C539.592 98.6246 539.085 108.387 537.358 117.67C536.436 122.626 532.258 127.329 528.628 131.301C526.074 134.096 524.545 136.09 525.739 140.036C533.469 165.591 531.816 191.603 528.885 217.593C526.9 235.184 524.403 252.717 521.694 271.209C520.123 278.407 518.996 284.674 517.703 291.362C516.712 294.87 515.909 297.964 515.056 301.043C512.221 311.293 509.368 321.537 506.227 332.032C505.307 333.387 504.682 334.496 504.058 335.604C503.326 337.587 502.594 339.57 501.181 342.016C495.016 340.958 489.531 339.436 483.703 337.592C482.003 336.65 480.656 336.009 479.288 335.415C453.109 324.03 428.925 309.77 411.666 286.222C408.054 281.294 404.535 280.218 398.801 281.031C387.464 282.639 376.001 283.353 364.575 284.438C363.838 281.727 363.339 279.89 362.833 277.557C362.224 272.127 361.62 267.194 361.383 262.017C362.158 261.357 362.567 260.94 363.419 260.469C382.433 252.947 401.003 245.481 420.02 237.949C422.595 236.956 425.023 236.404 426.772 235.002C428.808 233.368 430.25 230.99 432.279 228.562C433.292 225.135 434.512 222.09 434.565 219.024C434.779 206.426 434.638 193.822 434.809 180.72C435.276 177.042 435.449 173.85 435.864 170.689C438.492 150.659 441.228 130.643 443.804 110.607C444.619 104.27 447.511 99.9563 454.496 98.6243C463.051 96.5489 471.089 94.3831 479.693 92.1303C492.927 88.7539 505.594 85.4647 518.678 82.0842C520.14 81.5816 521.185 81.1701 522.23 80.7587V80.7587Z" fill="#E6E6E6"/>
<path d="M155.311 323.385C157.62 331.32 159.42 339.237 161.259 347.648C154.925 349.082 148.553 350.022 141.695 351.155C138.8 349.673 136.403 347.977 133.975 346.328C129.886 343.551 129.325 338.604 132.254 334.938C133.853 332.937 134.675 330.313 135.939 327.495C142.288 325.803 148.545 324.585 155.311 323.385Z" fill="#FFB6B6"/>
<path d="M117.835 366.186C117.143 365.757 114.773 360.974 101.641 333.501C87.3934 303.693 86.2505 301.197 86.1485 299.669C86.0464 298.138 86.0982 297.951 86.8704 297.07C87.8084 295.999 90.2319 294.811 92.4106 294.353C94.2543 293.965 96.331 294.383 98.0142 295.481C98.6646 295.905 101.592 298.32 104.52 300.847C107.448 303.375 114.863 309.588 120.997 314.655C136.121 327.147 136.578 327.534 136.594 327.866C136.623 328.487 134.591 332.808 133.466 334.517C131.778 337.082 131.387 338.14 131.381 340.162C131.376 342.091 131.972 343.77 133.16 345.17C133.539 345.616 135.622 347.2 137.788 348.689C139.955 350.177 141.73 351.471 141.734 351.563C141.74 351.739 129.882 360.003 123.582 364.212C121.543 365.575 119.598 366.689 119.26 366.688C118.922 366.688 118.28 366.461 117.835 366.186Z" fill="white"/>
<path d="M141.169 333.467C140.446 333.094 137.711 328.51 122.483 302.146C105.959 273.542 104.626 271.143 104.405 269.628C104.184 268.109 104.221 267.919 104.923 266.98C105.774 265.839 108.098 264.465 110.235 263.838C112.043 263.308 114.145 263.563 115.909 264.526C116.59 264.898 119.697 267.076 122.812 269.367C125.928 271.658 133.803 277.273 140.313 281.845C156.363 293.118 156.849 293.468 156.89 293.798C156.968 294.415 155.278 298.882 154.289 300.673C152.806 303.362 152.498 304.447 152.65 306.464C152.795 308.388 153.52 310.015 154.813 311.317C155.225 311.733 157.425 313.149 159.701 314.464C161.977 315.779 163.847 316.93 163.858 317.021C163.878 317.197 152.699 326.362 146.745 331.05C144.818 332.568 142.966 333.831 142.629 333.856C142.292 333.882 141.635 333.707 141.169 333.467Z" fill="white"/>
</svg>
