<svg width="585" height="405" viewBox="0 0 585 405" fill="none" xmlns="http://www.w3.org/2000/svg">
<g filter="url(#filter0_d_194_385)">
<path d="M491.165 74.404C493.05 77.6519 505.022 94.7051 507.943 97.8784C499.246 102.038 489.02 108.395 481.25 112.644C479.252 110.25 477.563 97.2659 475.84 94.2972C471.276 96.9578 466.822 99.4948 462.427 102.132C457.723 104.955 453.669 103.969 450.272 100.004C440.063 88.0889 432.959 74.6116 430.392 58.2803C443.892 50.6682 452.936 57.888 461.415 67.8878C462.308 64.6311 461.981 62.4258 462.577 60.5073C463.285 58.2271 464.575 54.5906 465.989 54.4028C468.555 54.0622 471.97 55.1885 473.951 56.9328C475.598 58.3833 476.385 61.6139 476.331 64.0291C476.234 68.2986 478.241 70.5291 481.818 71.835C484.864 72.9475 489.534 71.5938 491.165 74.404Z" fill="#FFB6B6"/>
<path d="M491.161 74.3755C487.964 73.8587 484.847 72.9397 481.801 71.8273C478.225 70.5215 476.218 68.2911 476.314 64.0219C476.369 61.6068 475.582 58.3764 473.934 56.9259C471.953 55.1817 468.539 54.0555 465.973 54.3961C464.559 54.5839 463.269 58.2202 462.561 60.5003C461.965 62.4186 462.292 64.6238 461.4 67.8803C452.921 57.881 443.877 50.6617 430.266 57.7648C426.225 56.6559 422.463 55.5318 418.973 53.8433C416.614 52.7019 414.639 50.7658 411.086 48.1505C415.694 46.6171 418.562 45.6629 422.098 44.4861C420.9 43.0852 420.269 41.9964 419.34 41.3189C414.77 37.9884 416.397 34.8304 420.001 32.5471C434.063 23.6378 449.447 20.1346 465.441 25.2384C485.069 31.5022 494.187 49.6624 491.161 74.3755Z" fill="#2D3959"/>
<path d="M292.5 330.787C143.107 330.787 22.0001 342.32 22.0001 356.547C22.0001 370.774 143.107 382.307 292.5 382.307C441.893 382.307 563 370.774 563 356.547C563 342.32 441.893 330.787 292.5 330.787Z" fill="#B3B3B3"/>
<path d="M195.524 294.238C198.442 301.968 200.853 309.721 203.341 317.963C197.138 319.887 190.858 321.322 184.11 322.987C181.107 321.736 178.586 320.233 176.037 318.778C171.745 316.328 170.8 311.44 173.435 307.558C174.874 305.438 175.49 302.757 176.531 299.849C182.728 297.666 188.872 295.963 195.524 294.238Z" fill="#FFB6B6"/>
<path d="M184.766 295.627C184.766 297.53 188.308 294.162 190.151 293.775C222.931 286.896 256.164 265.372 288.919 258.372C291.436 257.834 293.623 255.748 296.518 254.504C300.883 254.602 304.774 255.067 308.489 254.456C318.227 252.856 327.197 260.906 336.973 259.464C342.64 258.803 347.783 258.421 352.434 258.893C390.994 270.125 352.384 259.106 390.898 270.05C392.344 270.252 393.868 269.901 395.355 269.806C395.641 271.688 395.926 273.57 396.347 276.348C407.822 276.587 419.291 277.199 430.737 276.909C436.526 276.762 439.898 278.236 442.921 283.548C457.363 308.929 479.749 325.881 504.448 340.208C505.738 340.957 507.003 341.749 508.583 342.88C489.65 354.156 469.265 352.388 449.131 347.483C430.729 343 412.729 336.863 393.662 331.108C387.994 328.822 383.215 326.884 377.942 324.8C362.081 319.16 346.495 315.599 329.647 319.268C324.63 320.818 320.055 322.339 315.479 323.859C305.014 325.648 294.595 328.542 284.075 328.972C267.3 329.659 250.456 328.802 233.646 328.414C221.723 328.139 209.795 327.765 197.892 327.052C188.427 326.484 188.443 326.226 187.257 316.198C186.263 307.137 184.766 287.506 184.766 295.627V295.627Z" fill="#1E2841"/>
<path d="M421.942 269.022C410.229 262.615 398.497 256.241 386.825 249.76C385.263 248.893 383.999 247.488 382.657 245.495C383.303 238.936 383.89 233.213 384.476 227.491C384.863 223.055 388.242 223.168 391.104 223.693C404.257 226.107 417.503 228.168 430.471 231.435C435.77 232.77 437.399 233.49 441.271 234.647C445.985 236.195 452.212 237.105 452.781 239.074C455.751 249.345 448.733 261.034 451.251 271.295C451.982 274.27 451.576 277.526 451.049 281.043C440.918 277.296 431.43 273.159 421.942 269.022V269.022Z" fill="#D0D0D0"/>
<path d="M386.92 226.269C386.182 231.921 384.914 237.53 383.42 243.523C373.73 247.405 364.143 250.21 353.898 248.312C351.646 247.894 349.49 246.961 347.289 246.266C347.364 245.635 347.439 245.005 347.514 244.375C350.272 243.989 353.148 243.962 355.752 243.106C357.943 242.385 359.818 240.698 361.833 239.438C359.673 238.18 357.615 236.086 355.335 235.809C346.014 234.68 341.418 241.53 336.424 248.125C335.221 246.952 334.201 245.458 333.163 243.938C340.637 231.569 351.433 225.524 365.963 226.118C372.762 226.397 379.581 226.204 386.92 226.269L386.92 226.269Z" fill="#F4ACAC"/>
<path d="M176.748 327.471C178.457 326.641 180.098 325.607 181.885 325.011C213.658 314.399 245.467 303.894 277.2 293.165C279.639 292.34 281.572 290.016 284.305 288.447C288.652 288.041 292.571 288.054 296.192 287.019C305.681 284.307 315.041 281.138 324.587 278.579C328.091 283.311 332.073 282.883 336.387 280.627C341.344 278.035 346.16 274.724 353.857 276.915C347.798 280.274 342.886 282.998 336.829 286.356C339.166 287.127 340.111 287.803 340.652 287.564C353.097 282.058 366.235 282.571 379.368 282.879C380.828 282.914 382.302 282.388 383.769 282.123C384.268 283.959 384.767 285.796 385.504 288.507C396.931 287.422 408.393 286.709 419.73 285.1C425.464 284.287 428.984 285.363 432.596 290.291C449.855 313.839 474.038 328.099 500.217 339.484C501.585 340.079 502.932 340.72 504.632 341.662C487.119 355.044 466.666 355.638 446.103 353.086C427.309 350.753 408.723 346.733 389.122 343.214C383.229 341.596 378.26 340.221 372.783 338.759C356.38 334.985 340.488 333.244 324.173 338.83C319.368 340.949 314.997 342.986 310.626 345.024C300.436 348.007 290.418 352.083 280.017 353.723C263.433 356.338 246.602 357.429 229.859 358.981C217.984 360.082 206.092 361.086 194.186 361.749C184.719 362.276 184.705 362.017 182.376 352.193C180.349 343.307 178.548 335.389 176.748 327.471V327.471Z" fill="#2C3859"/>
<path d="M294.559 242.771L292.588 252.57L413.528 276.999L415.499 267.2L294.559 242.771Z" fill="#DCDCDC"/>
<path d="M274.242 144.792C273.671 142.255 271.156 140.661 268.624 141.233C266.092 141.805 264.502 144.326 265.072 146.863L287.096 244.776C287.667 247.313 290.182 248.906 292.714 248.334C295.246 247.762 296.836 245.242 296.265 242.704L274.242 144.792Z" fill="#DCDCDC"/>
<path d="M355.949 258.446L299.879 247.819L299.242 251.192L355.312 261.819L355.949 258.446Z" fill="black"/>
<path d="M371.155 261.513L361.574 259.697L360.947 263.02L370.528 264.836L371.155 261.513Z" fill="black"/>
<path d="M369.872 262.911L362.094 261.437L361.881 262.565L369.659 264.039L369.872 262.911Z" fill="white"/>
<path d="M399.16 268.02L377.99 264.008L377.741 265.329L398.911 269.341L399.16 268.02Z" fill="#800000"/>
<path d="M324.971 278.354C332.831 268.478 341.987 261.119 356.193 261.026C365.588 262.73 376.269 266.254 384.639 267.942C385.243 272.875 384.663 275.857 385.273 281.287C383.811 282.049 381.212 282.689 379.752 282.655C366.619 282.347 353.481 281.834 341.035 287.339C340.494 287.579 339.55 286.903 337.213 286.132C343.27 282.773 348.182 280.05 354.241 276.69C346.543 274.5 341.727 277.811 336.771 280.403C332.457 282.659 328.474 283.086 324.971 278.354V278.354Z" fill="#FFB6B6"/>
<path d="M544.23 86.3806C545.496 86.2174 546.778 86.1301 548.027 85.8792C559.187 83.6372 559.98 83.5664 560.858 94.8203C561.592 104.246 561.085 114.009 559.358 123.292C558.436 128.248 554.258 132.951 550.628 136.923C548.074 139.718 546.545 141.712 547.739 145.658C555.469 171.213 553.816 197.224 550.885 223.215C548.9 240.806 546.403 258.339 543.694 276.831C542.123 284.029 540.996 290.296 539.703 296.984C538.712 300.492 537.909 303.585 537.056 306.665C534.221 316.915 531.368 327.159 528.227 337.653C527.307 339.009 526.682 340.117 526.058 341.226C525.326 343.209 524.594 345.192 523.181 347.638C517.016 346.58 511.531 345.058 505.703 343.214C504.003 342.272 502.656 341.631 501.288 341.037C475.109 329.652 450.925 315.392 433.666 291.844C430.054 286.916 426.535 285.84 420.801 286.653C409.464 288.261 398.001 288.975 386.575 290.06C385.838 287.349 385.339 285.512 384.833 283.179C384.224 277.749 383.62 272.816 383.383 267.639C384.158 266.978 384.567 266.562 385.419 266.091C404.433 258.569 423.003 251.103 442.02 243.571C444.595 242.578 447.023 242.026 448.772 240.623C450.808 238.99 452.25 236.611 454.279 234.184C455.292 230.757 456.512 227.712 456.565 224.646C456.779 212.048 456.638 199.444 456.809 186.342C457.276 182.664 457.449 179.471 457.864 176.31C460.492 156.281 463.228 136.265 465.804 116.229C466.619 109.892 469.511 105.578 476.496 104.246C485.051 102.171 493.089 100.005 501.693 97.7521C514.927 94.3758 527.594 91.0865 540.678 87.7061C542.14 87.2035 543.185 86.792 544.23 86.3806V86.3806Z" fill="#E6E6E6"/>
<path d="M177.31 329.007C179.619 336.942 181.419 344.859 183.258 353.27C176.924 354.704 170.552 355.644 163.694 356.777C160.799 355.295 158.402 353.599 155.974 351.95C151.885 349.172 151.324 344.225 154.253 340.56C155.852 338.559 156.674 335.935 157.938 333.117C164.287 331.425 170.544 330.207 177.31 329.007Z" fill="#FFB6B6"/>
<path d="M139.835 371.807C139.143 371.379 136.773 366.596 123.641 339.123C109.393 309.314 108.25 306.819 108.149 305.291C108.046 303.76 108.098 303.573 108.87 302.692C109.808 301.621 112.232 300.433 114.411 299.975C116.254 299.587 118.331 300.005 120.014 301.103C120.665 301.527 123.592 303.942 126.52 306.469C129.448 308.996 136.863 315.21 142.997 320.277C158.121 332.768 158.578 333.156 158.594 333.488C158.623 334.109 156.591 338.43 155.466 340.139C153.778 342.704 153.387 343.762 153.381 345.784C153.376 347.713 153.972 349.392 155.16 350.792C155.539 351.238 157.622 352.822 159.788 354.31C161.955 355.799 163.73 357.093 163.734 357.185C163.74 357.361 151.882 365.625 145.582 369.834C143.543 371.197 141.598 372.311 141.26 372.31C140.922 372.31 140.28 372.083 139.835 371.807Z" fill="white"/>
<path d="M163.169 339.088C162.446 338.716 159.711 334.132 144.483 307.768C127.959 279.164 126.626 276.765 126.405 275.249C126.184 273.731 126.221 273.541 126.923 272.602C127.774 271.461 130.098 270.087 132.235 269.46C134.043 268.93 136.145 269.185 137.909 270.148C138.59 270.52 141.697 272.698 144.812 274.989C147.928 277.28 155.803 282.895 162.313 287.467C178.363 298.74 178.849 299.09 178.89 299.42C178.968 300.037 177.278 304.503 176.289 306.295C174.806 308.984 174.498 310.069 174.65 312.086C174.795 314.01 175.52 315.637 176.813 316.939C177.225 317.355 179.425 318.771 181.701 320.086C183.977 321.401 185.847 322.552 185.858 322.643C185.878 322.819 174.699 331.983 168.745 336.672C166.818 338.19 164.966 339.452 164.629 339.478C164.292 339.504 163.635 339.329 163.169 339.088Z" fill="white"/>
</g>
<defs>
<filter id="filter0_d_194_385" x="0" y="0.87738" width="585" height="403.43" filterUnits="userSpaceOnUse" color-interpolation-filters="sRGB">
<feFlood flood-opacity="0" result="BackgroundImageFix"/>
<feColorMatrix in="SourceAlpha" type="matrix" values="0 0 0 0 0 0 0 0 0 0 0 0 0 0 0 0 0 0 127 0" result="hardAlpha"/>
<feOffset/>
<feGaussianBlur stdDeviation="11"/>
<feComposite in2="hardAlpha" operator="out"/>
<feColorMatrix type="matrix" values="0 0 0 0 0 0 0 0 0 0 0 0 0 0 0 0 0 0 0.48 0"/>
<feBlend mode="normal" in2="BackgroundImageFix" result="effect1_dropShadow_194_385"/>
<feBlend mode="normal" in="SourceGraphic" in2="effect1_dropShadow_194_385" result="shape"/>
</filter>
</defs>
</svg>
