<svg width="417" height="371" viewBox="0 0 417 371" fill="none" xmlns="http://www.w3.org/2000/svg">
<path d="M31.3836 1.08105C30.8431 1.71167 29.4918 4.5044 28.3206 7.20703C27.0594 9.90967 24.9874 13.5132 23.6361 15.0447C20.9334 18.1978 20.8433 20.45 23.2757 21.8914C24.3568 22.6121 25.4378 22.3418 28.0504 20.3599C29.8521 19.0085 31.4737 18.0176 31.5638 18.1077C31.6539 18.2878 32.4647 25.7651 33.2755 34.6838C34.807 50.9898 35.0772 56.7554 38.4105 122.97C39.4014 142.789 40.3924 160.987 40.6627 163.51C41.8338 174.771 43.005 206.572 43.3653 233.328C43.5455 249.453 43.9959 275.219 44.3563 290.624L44.9869 318.641L38.3204 319.181C34.6268 319.542 25.3477 319.812 17.6903 319.812C10.0328 319.722 3.00592 319.812 2.19513 319.812C0.0330192 319.812 -0.0570685 324.767 2.01495 325.578C2.82574 325.848 12.7354 326.118 24.0865 326.118H44.7166V333.055C44.7166 345.217 46.4283 365.847 47.6895 368.369C48.9508 371.072 52.0137 371.883 53.6353 369.901C54.5362 368.82 54.5362 367.469 53.8155 364.135C53.3651 361.703 52.6444 352.154 52.284 343.055L51.6534 326.388L56.5181 325.848C72.1034 324.046 179.578 323.235 223.541 324.497C235.973 324.857 257.414 325.307 271.288 325.307C285.161 325.398 302.188 325.848 309.125 326.208C316.061 326.659 330.475 327.109 341.106 327.379C351.736 327.56 360.565 328.1 360.655 328.461C360.655 328.911 359.033 331.253 357.051 333.686C350.565 341.163 349.394 345.127 352.727 348.1C355.43 350.532 357.682 349.631 358.313 345.667C358.853 342.514 360.655 339.722 364.979 335.758C365.97 334.857 368.132 332.875 369.754 331.343C374.348 327.199 373.538 325.488 365.069 321.163C360.295 318.731 356.781 316.118 354.259 313.146C350.295 308.641 348.043 308.011 346.151 310.983C345.43 312.245 345.79 313.416 348.223 316.749L351.196 320.983L336.421 320.443C269.396 317.92 127.958 316.749 78.7699 318.281L55.6173 319.001L54.9867 316.569C54.0858 313.146 55.2569 291.344 56.8785 280.624C59.9415 260.264 67.4188 241.075 82.1932 215.58C83.1842 213.959 84.085 212.607 84.3553 212.607C84.6256 212.607 86.4273 214.95 88.4093 217.833C90.3912 220.625 97.0577 228.012 103.274 234.229C124.895 255.94 155.435 273.056 198.046 287.38C223.181 295.849 262.639 302.515 298.314 304.497C307.773 304.948 318.404 305.578 322.007 305.848C328.944 306.299 332.097 305.308 332.097 302.605C332.097 299.272 330.295 299.002 298.314 297.65C284.441 297.11 249.667 292.876 234.802 289.993C185.164 280.263 133.633 255.669 107.688 229.094C99.4 220.715 88.8597 207.923 88.8597 206.301C88.8597 204.5 106.337 182.788 112.823 176.392C137.417 152.339 165.254 137.294 203.722 127.024C231.739 119.547 262.189 116.394 291.107 118.015C310.386 119.096 328.854 120.538 332.367 121.258C335.16 121.889 337.502 120.357 337.502 118.015C337.502 114.231 336.151 113.961 303.99 112.069C253.811 109.187 220.478 113.511 177.146 128.555C166.515 132.249 155.525 137.474 142.912 144.861C121.742 157.384 107.057 170.536 90.8416 191.707L84.4454 199.995L82.7337 197.563C79.7608 193.239 70.1214 175.401 67.7791 169.816C64.6261 162.248 55.2569 131.528 50.5723 113.421C48.8607 107.024 47.9598 105.403 45.7076 105.403C44.2662 105.403 43.9959 102.7 43.005 77.2053C42.4644 61.8003 41.3834 43.6025 40.6627 36.936C40.0321 30.2695 39.2213 21.7112 38.8609 18.0176L38.2303 11.261L41.2933 14.0537C44.9869 17.4771 47.0589 18.2878 49.3111 17.1167C52.1939 15.4951 51.293 13.6033 44.2662 6.66651C39.0411 1.44141 36.9691 0 34.897 0C33.4556 0 31.9241 0.540525 31.3836 1.08105ZM48.7706 133.33C57.9595 165.762 63.3648 179.005 75.6168 199.274L79.8509 206.211L73.0042 218.193C63.0946 235.31 58.5902 246.21 51.3831 270.174C51.1129 270.894 50.8426 271.255 50.5723 271.075C50.3922 270.804 50.1219 258.462 50.0318 243.688C49.7616 213.328 47.7796 165.582 45.1671 128.826C44.5365 120.538 45.4373 121.709 48.7706 133.33V133.33Z" fill="white"/>
<path d="M10.9326 32.2516C-0.418477 37.6569 3.54539 52.4313 16.2478 52.4313C23.5449 52.4313 28.2295 48.1972 24.4458 45.0441C23.2746 44.0532 22.3738 44.0532 19.4909 45.0441C16.428 46.0351 15.7073 46.0351 13.6352 44.6838C12.374 43.873 11.383 42.6118 11.383 41.8911C11.383 39.819 15.3469 37.6569 18.0495 38.3776C20.7522 39.0082 23.0945 37.5668 23.0945 35.1345C23.0945 31.2607 16.428 29.6391 10.9326 32.2516V32.2516Z" fill="white"/>
<path d="M356.962 87.8358C355.971 88.9168 355.61 90.2681 355.971 92.16C357.322 99.8175 357.953 115.673 357.502 131.979C357.142 147.294 357.322 150.267 358.493 151.168C359.394 151.978 360.475 152.068 362.006 151.438C363.268 150.987 366.691 150.807 369.574 151.077C373.808 151.438 375.159 151.258 376.15 150.087C377.141 148.825 376.961 148.555 374.889 147.744C373.448 147.204 370.024 146.573 367.051 146.213L361.826 145.672L362.367 128.015C362.637 117.565 362.547 106.664 361.916 101.439C361.466 96.4842 361.196 92.16 361.376 91.8897C361.916 91.0789 370.655 93.0609 373.448 94.5924C375.88 95.8536 377.502 94.7725 376.961 92.2501C376.601 90.2681 370.114 87.8358 362.997 86.8448C359.484 86.3943 358.223 86.5745 356.962 87.8358V87.8358Z" fill="#FF6866"/>
<path d="M401.016 87.7456C395.61 88.5564 394.709 89.0068 394.709 90.5383C394.709 92.0698 395.34 92.3401 398.763 92.3401C401.016 92.25 404.439 92.0698 406.331 91.8896L409.844 91.4392L410.024 114.862C410.114 127.745 410.475 139.006 410.925 139.906C411.556 141.348 410.925 141.438 403.358 141.258C397.862 141.078 394.799 141.438 394.079 142.159C392.277 143.96 394.529 145.312 399.844 145.492C402.457 145.582 406.871 145.942 409.664 146.393C416.06 147.204 416.691 146.303 415.7 138.465C415.159 133.961 414.889 109.907 415.249 93.331C415.339 90.7185 414.799 89.4572 413.267 88.196C410.925 86.3042 410.024 86.3042 401.016 87.7456V87.7456Z" fill="#FF6866"/>
<path d="M387.051 95.3132C383.898 95.6736 378.223 98.196 377.772 99.4573C377.592 99.9978 377.772 106.484 378.223 113.961C378.673 121.349 378.763 129.096 378.493 131.168C377.862 135.853 379.664 137.835 382.096 135.132C383.448 133.691 383.628 131.889 383.538 124.772L383.448 116.214H385.7C389.033 116.214 394.709 113.061 396.871 109.998C399.213 106.754 399.393 100.989 397.231 98.2861C395.519 96.2141 390.745 94.7727 387.051 95.3132V95.3132ZM392.276 100.538C394.619 102.16 394.709 103.601 392.907 107.205C392.096 108.736 390.384 110.178 388.403 110.808C383.628 112.43 382.547 111.619 382.547 106.394C382.547 102.791 382.907 101.619 384.529 100.538C385.61 99.7275 387.412 99.0969 388.403 99.0969C389.393 99.0969 391.195 99.7275 392.276 100.538Z" fill="#FF6866"/>
<path d="M333.808 257.742C333.358 265.129 333.899 306.659 334.439 307.2C335.88 308.461 342.367 306.839 342.727 305.128C342.997 304.047 342.457 303.596 340.745 303.596C339.484 303.596 338.403 303.326 338.403 302.876C338.403 302.515 338.313 292.876 338.223 281.525L338.133 260.804L344.529 260.895C348.943 260.895 351.105 260.534 351.376 259.723C352.096 258.012 350.745 257.651 342.006 257.021C335.52 256.66 333.899 256.751 333.808 257.742Z" fill="#0094FF"/>
<path d="M378.762 258.282C374.528 258.732 372.636 260.714 375.158 262.066C376.42 262.786 377.771 262.696 379.843 262.066C381.375 261.525 382.816 261.165 382.996 261.345C383.627 262.066 383.717 298.731 383.086 299.812C382.726 300.443 381.645 300.893 380.654 300.893C379.393 300.893 378.942 301.344 379.122 302.425C379.573 304.497 385.969 304.497 387.501 302.425C388.221 301.434 388.401 294.767 388.221 280.443C388.041 269.182 387.771 259.363 387.501 258.732C387.14 257.651 385.519 257.561 378.762 258.282V258.282Z" fill="#0094FF"/>
<path d="M352.816 262.786C349.122 263.507 348.492 264.678 347.861 271.885C347.501 275.669 346.6 279.813 345.879 280.984C344.978 282.425 344.798 283.326 345.519 284.047C346.15 284.678 346.24 287.921 345.879 293.326C345.429 300.803 345.519 301.794 346.87 302.335C349.303 303.236 349.933 301.794 350.294 295.218C350.384 291.795 350.834 288.642 351.104 288.101C351.465 287.56 353.537 289.452 355.969 292.605C361.915 300.263 367.14 301.794 371.284 297.29C372.185 296.299 372.635 294.948 372.275 294.047C371.735 292.696 371.554 292.696 369.482 294.047C365.789 296.479 363.897 295.849 360.023 290.894C358.041 288.371 356.42 285.939 356.42 285.579C356.42 285.128 358.672 283.777 361.464 282.516C364.257 281.254 367.681 278.912 369.122 277.381C376.779 269.183 366.78 260.264 352.816 262.786V262.786ZM363.537 267.561C368.131 269.903 368.581 271.525 365.609 274.768C363.086 277.561 352.816 282.335 351.735 281.254C351.375 280.894 351.465 278.011 351.825 274.858C352.906 266.12 356.42 263.867 363.537 267.561V267.561Z" fill="#0094FF"/>
<path d="M339.844 337.109C338.853 337.65 336.961 338.1 335.519 338.01C334.078 338.01 332.546 338.641 331.826 339.632C331.195 340.532 328.492 342.514 325.79 344.136C323.087 345.758 320.565 347.469 320.204 348.1C318.943 349.992 319.484 352.154 321.375 353.145C322.907 354.046 323.898 353.775 326.781 351.884C329.844 349.811 330.294 349.721 330.294 351.073C330.745 366.478 331.105 367.829 335.249 367.379C336.961 367.108 337.051 366.298 337.321 356.568L337.591 345.938L340.204 344.586C343.897 342.695 345.789 339.812 344.618 337.65C343.627 335.758 342.366 335.668 339.844 337.109V337.109Z" fill="white"/>
<path d="M21.7442 338.46C12.3751 343.325 9.94269 352.514 15.8885 360.081C18.501 363.415 21.1136 364.766 24.8973 364.856C31.4737 364.856 37.5096 358.64 37.5096 351.613C37.5096 348.01 35.9781 345.397 29.8521 338.46C28.1404 336.569 25.3477 336.569 21.7442 338.46ZM27.9603 347.83C30.5728 349.902 30.9332 352.694 28.8612 355.667C26.0684 359.721 20.1226 356.838 20.1226 351.343C20.1226 346.118 23.7261 344.496 27.9603 347.83Z" fill="white"/>
</svg>
