<?xml version="1.0" encoding="UTF-8" standalone="no"?>
<svg
   xmlns:dc="http://purl.org/dc/elements/1.1/"
   xmlns:cc="http://creativecommons.org/ns#"
   xmlns:rdf="http://www.w3.org/1999/02/22-rdf-syntax-ns#"
   xmlns:svg="http://www.w3.org/2000/svg"
   xmlns="http://www.w3.org/2000/svg"
   xmlns:sodipodi="http://sodipodi.sourceforge.net/DTD/sodipodi-0.dtd"
   xmlns:inkscape="http://www.inkscape.org/namespaces/inkscape"
   xml:space="preserve"
   style="enable-background:new 0 0 261 275;"
   viewBox="0 0 261 275"
   y="0px"
   x="0px"
   id="svg5699"
   version="1.1"
   sodipodi:docname="cin.svg"
   inkscape:export-filename="C:\Users\Amardeep\Desktop\cinquecento.png"
   inkscape:export-xdpi="500.60001"
   inkscape:export-ydpi="500.60001"
   inkscape:version="1.0 (4035a4fb49, 2020-05-01)"><sodipodi:namedview
   inkscape:document-rotation="0"
   pagecolor="#ffffff"
   bordercolor="#666666"
   borderopacity="1"
   objecttolerance="10"
   gridtolerance="10"
   guidetolerance="10"
   inkscape:pageopacity="0"
   inkscape:pageshadow="2"
   inkscape:window-width="1920"
   inkscape:window-height="1001"
   id="namedview14"
   showgrid="false"
   inkscape:zoom="1.4142136"
   inkscape:cx="-34.478001"
   inkscape:cy="156.48731"
   inkscape:window-x="-9"
   inkscape:window-y="-9"
   inkscape:window-maximized="1"
   inkscape:current-layer="svg5699" /><metadata
   id="metadata17"><rdf:RDF><cc:Work
       rdf:about=""><dc:format>image/svg+xml</dc:format><dc:type
         rdf:resource="http://purl.org/dc/dcmitype/StillImage" /><dc:title /></cc:Work></rdf:RDF></metadata><defs
   id="defs15" />
<style
   id="style2"
   type="text/css">
	.st0{fill:none;}
</style>

<g
   style="stroke-width:1.69013"
   transform="matrix(0.59167073,0,0,0.59167073,151.17147,-1.602538)"
   id="g82"><path
     style="fill:#ffffff;fill-rule:evenodd;stroke-width:1.69013"
     id="path30"
     sodipodi:type="arc"
     sodipodi:cx="-35"
     sodipodi:cy="235"
     sodipodi:rx="213"
     sodipodi:ry="213"
     sodipodi:start="6.2813702"
     sodipodi:end="6.2811607"
     sodipodi:open="true"
     sodipodi:arc-type="arc"
     d="M 177.99965,234.61338 A 213,213 0 0 1 -34.602227,447.99963 213,213 0 0 1 -247.99961,235.40893 213,213 0 0 1 -35.420085,22.000414 213,213 0 0 1 177.99956,234.56876" /><g
     id="g55"
     transform="matrix(1.2384722,0,0,1.2384722,-165.37398,40.731218)"
     style="stroke-width:1.36469"><g
       aria-label="ð•®ð–Žð–“ð––ð–šð–Šð–ˆð–Šð–“ð–™ð–”"
       transform="matrix(0.75602391,0,0,0.76359895,8.693843,60.665461)"
       id="text841"
       style="font-style:normal;font-weight:normal;font-size:39.4213px;line-height:1.25;font-family:sans-serif;fill:#000000;fill-opacity:1;stroke:none;stroke-width:1.34494"><path
         d="m 34.107191,256.64907 -0.86619,-1.30891 q 1.578391,-0.88544 1.578391,-2.07885 0,-0.53897 -0.153989,-1.00094 -0.134741,-0.48121 -0.538963,-1.15492 -0.384974,-0.6737 -1.135672,-1.75163 -1.000932,-1.3859 -1.539895,-2.61782 -0.519714,-1.23191 -0.519714,-2.38683 0,-1.11643 0.769947,-2.30985 0.789196,-1.19341 2.540826,-2.75256 -0.981683,-1.3859 -2.309842,-1.3859 -1.347407,0 -2.463831,0.98168 -1.116423,0.98168 -1.770879,2.86805 -0.635206,1.86713 -0.635206,4.4272 0,3.92673 1.116424,6.89103 1.116423,2.94505 3.310773,4.56194 2.213598,1.61689 5.351133,1.61689 2.714064,0 5.100901,-1.05868 2.406085,-1.07793 4.215461,-3.17603 l 1.135672,0.86619 q -2.117355,3.69574 -5.177895,5.60136 -3.060541,1.88637 -6.929526,1.88637 -4.022974,0 -7.122012,-1.77088 -3.099037,-1.77087 -4.81217,-5.08165 -1.693884,-3.33002 -1.693884,-7.64172 0,-2.52158 0.500466,-4.56194 0.519714,-2.05961 1.424402,-3.61875 0.923937,-1.55915 2.213599,-2.67557 1.30891,-1.13567 2.810307,-1.69388 1.501397,-0.57746 2.983546,-0.57746 2.77181,0 4.446445,2.04036 l 2.560075,-2.52158 q 1.02018,0.76995 2.001862,1.21267 0.981683,0.44272 1.944117,0.44272 0.789196,0 1.578392,-0.36573 0.808445,-0.38497 1.366656,-1.05868 l 1.385905,1.05868 q -1.847873,2.67557 -3.34927,3.92673 -1.482148,1.23192 -2.829556,1.23192 -1.097175,0 -2.309842,-0.46197 -1.193418,-0.46197 -1.963365,-1.13567 -0.519715,0.51971 -0.750699,0.90468 -0.211735,0.36573 -0.211735,0.8277 0,0.65445 0.307978,1.25116 0.307979,0.59671 1.077927,1.55915 l 1.559143,2.04036 q 0.346476,0.48121 0.692952,1.11642 0.346477,0.63521 0.519715,1.27041 0.192487,0.61596 0.192487,1.25117 0,1.59764 -1.4629,3.23377 -1.443651,1.61689 -4.138467,3.07979 z"
         style="stroke-width:1.34494"
         id="path843" /><path
         d="m 54.183567,240.76891 q -1.982615,-1.98261 -2.656318,-2.90655 -0.654456,-0.94318 -0.654456,-1.48215 0,-0.65445 1.039429,-1.11642 1.058678,-0.46197 2.232847,-0.46197 1.385905,0 2.348339,0.48122 0.962434,0.48121 0.962434,1.13567 0,0.48122 -0.635206,1.36666 -0.615958,0.88544 -2.637069,2.98354 z m 4.908413,7.06427 q -1.944117,0.53896 -1.944117,2.8873 v 6.64079 q 0,0.73145 0.327228,1.21267 0.346476,0.46197 0.885439,0.46197 0.327228,0 0.750699,-0.21174 0.423471,-0.21173 0.769947,-0.51971 l 0.692953,1.44365 -5.485874,3.73425 q -1.636138,-0.98169 -2.386837,-2.04036 -0.750698,-1.05868 -0.750698,-2.65632 v -8.35393 q 0,-1.15492 -0.346477,-1.75163 -0.327227,-0.59671 -0.943185,-0.59671 -0.250233,0 -0.673704,0.17324 -0.404222,0.17324 -0.654455,0.38497 l -0.615958,-1.4244 q 1.366656,-0.76995 2.868054,-1.86712 1.520645,-1.11643 2.637069,-2.23285 0.866191,1.09718 2.213598,2.11736 1.366657,1.00093 2.63707,1.48214 z"
         style="stroke-width:1.34494"
         id="path845" /><path
         d="m 65.386301,250.39325 q 0,-1.19342 -0.384974,-1.90562 -0.365725,-0.73145 -1.077926,-0.73145 -0.654455,0 -2.059609,0.86619 l -0.615958,-1.53989 q 2.386837,-1.02018 6.737039,-4.09997 1.174169,0.57746 1.809376,1.67464 0.635206,1.09717 0.73145,3.00279 3.137535,-1.38591 7.757218,-4.67743 0.73145,0.84694 2.155852,1.75163 1.443651,0.88544 2.579324,1.25116 v 1.19342 q -0.789196,0.0385 -1.212667,0.26948 -0.423471,0.23099 -0.615958,0.69296 -0.173238,0.44272 -0.173238,1.52064 v 6.52531 q 0,1.80937 0.327227,2.59857 0.327228,0.78919 1.097175,0.78919 0.461969,0 0.904688,-0.17324 0.461969,-0.17323 0.846942,-0.38497 l 0.500466,1.36666 q -0.923937,0.38497 -6.140329,3.09904 -1.116424,-0.63521 -1.693884,-1.27042 -0.558212,-0.6352 -0.808445,-1.50139 -0.230984,-0.8662 -0.230984,-2.34834 v -8.73891 q 0,-0.53896 -0.500466,-1.02018 -0.481217,-0.48121 -0.962434,-0.48121 -0.134741,0 -0.461968,0.11549 -0.307979,0.11549 -1.308911,0.63521 l -2.001862,1.02018 v 12.68488 h -5.197144 z"
         style="stroke-width:1.34494"
         id="path847" /><path
         d="m 97.858822,260.30632 q -0.73145,0.38498 -1.501398,0.7507 -3.002794,1.4629 -3.907482,2.52158 -1.231915,-0.63521 -1.963365,-1.13567 -0.712201,-0.50047 -1.251165,-1.11643 -0.519714,-0.61595 -0.943185,-1.52064 -0.423471,-0.90469 -0.654455,-2.19435 -0.211736,-1.30891 -0.211736,-2.9258 0,-1.84788 0.288731,-3.27228 0.307979,-1.4244 0.904688,-2.48308 0.615957,-1.05868 1.578391,-1.82862 0.981683,-0.7892 2.560075,-1.69389 2.733313,-1.55914 3.638001,-2.40608 2.001863,1.30891 4.138468,2.27134 2.1366,0.94319 4.02297,1.28966 v 1.17417 q -0.73145,0.13474 -1.11642,0.67371 -0.38497,0.51971 -0.38497,1.59764 v 9.97082 q 0,3.33002 -0.34648,5.6976 -0.32723,2.36759 -1.00093,4.27321 h -2.848807 q -0.500466,-1.80937 -0.750699,-4.19621 -0.250232,-2.36759 -0.250232,-4.98541 z m 0,-11.89568 q -2.098107,-1.19342 -3.233779,-1.67464 -2.001863,1.5014 -2.001863,5.79386 0,3.34927 0.596709,4.94691 0.615958,1.57839 2.040361,1.57839 0.404222,0 1.193418,-0.30798 0.789196,-0.32723 1.405154,-0.80844 z"
         style="stroke-width:1.34494"
         id="path849" /><path
         d="m 126.6741,256.28335 q 0,1.19342 0.36572,1.92487 0.38498,0.7122 1.09718,0.7122 0.32723,0 0.92393,-0.25024 0.59671,-0.26948 1.13568,-0.61595 l 0.61595,1.3474 q -4.56193,2.42534 -6.73703,3.7535 -1.19342,-0.57746 -1.82863,-1.59764 -0.61596,-1.03943 -0.7122,-2.86806 -5.08165,2.30985 -8.14219,4.4657 -0.86619,-0.98169 -2.11736,-1.82863 -1.25116,-0.86619 -2.23284,-1.17417 l -0.0385,-1.00093 q 0.78919,-0.0385 1.21267,-0.26948 0.44272,-0.25023 0.6352,-0.69295 0.19249,-0.46197 0.19249,-1.52065 v -6.5253 q 0,-1.71313 -0.30798,-2.54083 -0.30798,-0.84694 -1.11642,-0.84694 -0.46197,0 -0.92394,0.17324 -0.44272,0.17324 -0.82769,0.38497 l -0.50047,-1.36665 q 1.15492,-0.51972 3.06054,-1.5014 1.92487,-0.98168 3.36852,-1.79013 1.19342,0.51972 1.80938,1.73238 0.6352,1.21267 0.6352,3.38777 v 8.91214 q 0,0.53896 0.48122,1.02018 0.48122,0.48122 0.94319,0.48122 0.5967,0 3.81123,-1.63614 v -7.56473 q 0,-1.17417 -0.44272,-1.65539 -0.42347,-0.50046 -1.36665,-0.51971 v -1.09718 q 1.09717,-0.53896 1.90562,-1.15492 0.80844,-0.61596 1.34741,-1.44365 h 3.75349 z"
         style="stroke-width:1.34494"
         id="path851" /><path
         d="m 138.08856,254.78195 q 0.23099,1.27041 0.88544,2.2136 0.65446,0.94319 1.44365,1.40515 0.80845,0.44272 1.59765,0.44272 1.11642,0 2.21359,-0.51971 1.11643,-0.51972 2.46383,-1.52065 l 0.73145,1.5014 -2.04036,1.34741 q -3.94598,2.54082 -5.27413,3.84973 -0.92394,-0.40422 -1.84788,-0.76994 -1.98261,-0.7892 -3.13753,-1.84788 -1.15492,-1.05867 -1.75163,-2.8873 -0.59671,-1.84787 -0.59671,-4.65818 0,-1.94412 0.32723,-3.27228 0.34647,-1.32815 0.96243,-2.1751 0.61596,-0.86619 1.4629,-1.48214 0.86619,-0.61596 2.46383,-1.38591 l 4.27321,-2.00186 4.88916,7.69947 z m 0.98169,-8.50792 q -0.46197,0.30798 -0.69296,0.86619 -0.21173,0.55822 -0.32722,1.71314 -0.0962,1.15492 -0.0962,3.98447 l 3.98448,-1.75163 z"
         style="stroke-width:1.34494"
         id="path853" /><path
         d="m 163.28509,258.92042 q -0.92394,0.61596 -1.80937,1.13567 -2.46384,1.4629 -3.44552,2.09811 -0.96243,0.6352 -1.84787,1.30891 -1.90562,-0.92394 -2.65632,-1.38591 -0.73145,-0.48122 -1.34741,-1.13567 -0.61596,-0.65446 -1.03943,-1.4629 -0.40422,-0.82769 -0.65445,-2.04036 -0.23099,-1.21267 -0.23099,-2.90655 0,-1.88637 0.19249,-3.19528 0.19249,-1.32816 0.53896,-2.1751 0.36573,-0.86619 0.8277,-1.40516 0.46197,-0.55821 1.11642,-1.05867 0.6737,-0.50047 2.77181,-1.67464 2.1751,-1.23192 2.9258,-1.90562 0.84694,1.11642 1.4244,1.57839 0.57746,0.44272 1.13568,0.44272 0.36572,0 0.7122,-0.19248 0.34647,-0.21174 0.59671,-0.7507 l 1.15492,0.53896 q -0.67371,1.98261 -1.75163,3.06054 -1.05868,1.05868 -2.32909,1.05868 -2.17511,0 -3.13754,-2.2906 -0.36572,0.34648 -0.53896,0.67371 -0.15399,0.30798 -0.25024,0.78919 -0.0962,0.46197 -0.15398,1.27042 -0.0385,0.78919 -0.0385,2.52157 v 1.59765 q 0,2.75256 0.96243,4.17696 0.98168,1.40515 2.81031,1.40515 0.6737,0 1.52065,-0.36572 0.86619,-0.36573 1.73238,-1.02018 z"
         style="stroke-width:1.34494"
         id="path855" /><path
         d="m 171.50428,254.78195 q 0.23099,1.27041 0.88544,2.2136 0.65446,0.94319 1.44365,1.40515 0.80845,0.44272 1.59764,0.44272 1.11643,0 2.2136,-0.51971 1.11642,-0.51972 2.46383,-1.52065 l 0.73145,1.5014 -2.04036,1.34741 q -3.94598,2.54082 -5.27414,3.84973 -0.92393,-0.40422 -1.84787,-0.76994 -1.98261,-0.7892 -3.13753,-1.84788 -1.15493,-1.05867 -1.75163,-2.8873 -0.59671,-1.84787 -0.59671,-4.65818 0,-1.94412 0.32722,-3.27228 0.34648,-1.32815 0.96244,-2.1751 0.61596,-0.86619 1.4629,-1.48214 0.86619,-0.61596 2.46383,-1.38591 l 4.27321,-2.00186 4.88916,7.69947 z m 0.98168,-8.50792 q -0.46196,0.30798 -0.69295,0.86619 -0.21173,0.55822 -0.32723,1.71314 -0.0962,1.15492 -0.0962,3.98447 l 3.98448,-1.75163 z"
         style="stroke-width:1.34494"
         id="path857" /><path
         d="m 185.88304,250.39325 q 0,-1.19342 -0.38497,-1.90562 -0.36573,-0.73145 -1.07793,-0.73145 -0.65445,0 -2.05961,0.86619 l -0.61595,-1.53989 q 2.38683,-1.02018 6.73703,-4.09997 1.17417,0.57746 1.80938,1.67464 0.63521,1.09717 0.73145,3.00279 3.13754,-1.38591 7.75722,-4.67743 0.73145,0.84694 2.15585,1.75163 1.44365,0.88544 2.57932,1.25116 v 1.19342 q -0.78919,0.0385 -1.21266,0.26948 -0.42347,0.23099 -0.61596,0.69296 -0.17324,0.44272 -0.17324,1.52064 v 6.52531 q 0,1.80937 0.32723,2.59857 0.32723,0.78919 1.09717,0.78919 0.46197,0 0.90469,-0.17324 0.46197,-0.17323 0.84694,-0.38497 l 0.50047,1.36666 q -0.92394,0.38497 -6.14033,3.09904 -1.11642,-0.63521 -1.69388,-1.27042 -0.55821,-0.6352 -0.80845,-1.50139 -0.23098,-0.8662 -0.23098,-2.34834 v -8.73891 q 0,-0.53896 -0.50047,-1.02018 -0.48121,-0.48121 -0.96243,-0.48121 -0.13474,0 -0.46197,0.11549 -0.30798,0.11549 -1.30891,0.63521 l -2.00186,1.02018 v 12.68488 h -5.19715 z"
         style="stroke-width:1.34494"
         id="path859" /><path
         d="m 206.57538,244.40691 q 2.8873,-0.26948 4.19621,-2.44458 1.30891,-2.19435 1.32816,-6.06333 h 2.11736 v 7.66097 h 3.79199 v 2.63707 h -3.79199 v 11.14499 q 0,0.34647 0.25023,0.76994 0.26948,0.40423 0.73145,0.67371 0.46197,0.26948 1.03943,0.26948 0.59671,0 1.79012,-0.7892 l 0.53897,1.65539 -1.38591,0.7892 q -2.98354,1.67463 -4.40795,2.8488 -1.25116,-1.17417 -2.44458,-1.86712 -1.17417,-0.7122 -2.69481,-1.17417 v -1.07793 q 0.76994,-0.15399 1.13567,-0.51971 0.36572,-0.38498 0.50046,-1.07793 0.15399,-0.69295 0.15399,-2.07886 v -9.56659 h -2.8488 z"
         style="stroke-width:1.34494"
         id="path861" /><path
         d="m 228.8076,263.46311 q -1.5399,-1.13568 -3.715,-2.13661 -2.15585,-1.02018 -4.42719,-1.67463 v -1.11643 q 1.50139,-0.44272 1.50139,-2.77181 v -9.12387 q 2.38684,-0.44272 4.63894,-1.38591 2.25209,-0.94318 3.75349,-2.1366 0.63521,0.38497 1.30891,0.69295 1.34741,0.61596 2.00186,0.98169 0.67371,0.34647 1.25117,0.78919 0.57746,0.42347 1.09717,1.07793 0.51972,0.65445 0.84694,1.48215 0.34648,0.80844 0.53897,2.02111 0.19248,1.19342 0.19248,2.86805 0,1.21267 -0.21173,2.2521 -0.21174,1.03943 -0.61596,1.92487 -0.40422,0.86619 -0.96243,1.53989 -0.55822,0.6737 -1.34741,1.25116 -0.76995,0.55822 -2.48308,1.42441 -1.5399,0.80844 -2.1751,1.17417 -0.61596,0.38497 -1.19342,0.86619 z m -1.44365,-16.03415 v 9.95156 q 0.46197,0.57746 1.53989,1.19342 1.07793,0.61596 2.1751,0.98168 0.86619,-0.6352 1.19342,-1.79012 0.32723,-1.15492 0.32723,-3.44552 0,-3.561 -1.03943,-5.40888 -1.02018,-1.84787 -3.00279,-1.84787 -0.13474,0 -0.32723,0.0577 -0.17324,0.0385 -0.59671,0.21173 z"
         style="stroke-width:1.34494"
         id="path863" /></g><path
       id="path862"
       style="fill:#000000;stroke-width:0.198882"
       d="M 131.40335,85.324894 98.00471,109.35957 a 64.509406,64.509406 0 0 0 -33.869063,13.72095 l -32.487472,-1.97074 4.84819,23.95751 a 29.729926,29.729926 0 0 1 23.709681,-11.79474 29.729926,29.729926 0 0 1 29.730224,29.72874 29.729926,29.729926 0 0 1 -29.730224,29.73022 29.729926,29.729926 0 0 1 -19.27404,-7.09494 64.509406,64.509406 0 0 0 32.951959,44.81051 10.987364,10.398755 0 0 1 9.421845,-5.08267 10.987364,10.398755 0 0 1 9.82696,5.7089 8.8291317,7.0633053 0 0 1 2.14585,-0.21518 8.8291317,7.0633053 0 0 1 8.84606,7.05044 v 0.002 a 8.8291317,7.0633053 0 0 1 -0.003,0.15879 64.509406,64.509406 0 0 0 0.17809,0 64.509406,64.509406 0 0 0 2.71124,-0.0579 8.6587818,6.4385811 0 0 1 -0.049,-0.67225 8.6587818,6.4385811 0 0 1 8.64127,-6.45089 8.6587818,6.4385811 0 0 1 1.80602,0.13949 11.767063,9.5468621 0 0 1 11.0661,-6.35592 11.767063,9.5468621 0 0 1 9.51237,3.90288 64.509406,64.509406 0 0 0 30.82243,-55.01441 64.509406,64.509406 0 0 0 -5.29932,-25.60176 37.599613,37.599613 0 0 1 -37.35644,33.3378 37.599613,37.599613 0 0 1 -37.59982,-37.59832 37.599613,37.599613 0 0 1 37.59982,-37.59982 37.599613,37.599613 0 0 1 13.02645,2.32838 z m -2.65931,26.419446 a 24.920676,24.920676 0 0 0 -24.62679,21.7241 24.920676,24.920676 0 0 0 21.51784,27.91085 24.920676,24.920676 0 0 0 27.91085,-21.51783 24.920676,24.920676 0 0 0 -21.51783,-27.91085 24.920676,24.920676 0 0 0 -3.28407,-0.20627 z m 5.49077,5.56199 a 7.141012,7.141012 0 0 1 0.002,0 7.141012,7.141012 0 0 1 0.97646,0.052 7.141012,7.141012 0 0 1 0.052,0.007 7.141012,7.141012 0 0 1 6.16597,7.9972 7.141012,7.141012 0 0 1 -7.99721,6.16597 7.141012,7.141012 0 0 1 -6.16597,-7.9972 7.141012,7.141012 0 0 1 6.96733,-6.22534 z m -70.958393,19.29184 a 16.905253,16.905253 0 0 0 -7.572792,1.86093 16.905253,16.905253 0 0 0 -0.03117,0.0149 16.905253,16.905253 0 0 0 -7.305674,22.73767 16.905253,16.905253 0 0 0 22.755476,7.33535 16.905253,16.905253 0 0 0 7.335351,-22.754 16.905253,16.905253 0 0 0 -15.181194,-9.19476 z m 5.659931,5.40023 a 5.1007228,5.1007228 0 0 1 0.0015,0 5.1007228,5.1007228 0 0 1 0.166207,0 5.1007228,5.1007228 0 0 1 4.471257,2.77507 5.1007228,5.1007228 0 0 1 -2.212626,6.86641 5.1007228,5.1007228 0 0 1 -6.867899,-2.21411 5.1007228,5.1007228 0 0 1 2.154752,-6.83525 5.1007228,5.1007228 0 0 1 0.05936,-0.0311 5.1007228,5.1007228 0 0 1 2.227466,-0.56094 z m 24.465032,36.72723 9.43965,2.07165 -4.56178,16.83881 -12.30226,-12.36904 0.0178,-0.005 c -1.2e-4,-0.002 1.2e-4,-0.005 0,-0.007 6.5e-4,-0.002 0.002,-0.003 0.002,-0.005 l -0.0207,0.007 z m 6.7195,2.79138 -0.1484,0.04 0.1484,-0.0386 z m -2.77803,0.73457 -0.0207,0.007 c 3.1e-4,7.6e-4 -3.8e-4,0.002 0,0.003 l 0.0164,-0.005 z m 30.02554,43.81625 a 10.590356,8.592176 0 0 0 -9.95905,5.71928 7.7929039,5.7947234 0 0 0 -1.62496,-0.12465 7.7929039,5.7947234 0 0 0 -7.7776,5.80536 7.7929039,5.7947234 0 0 0 0.77762,2.51091 h 26.91955 a 10.590356,8.592176 0 0 0 2.27643,-5.33493 v -0.002 a 10.590356,8.592176 0 0 0 -10.61199,-8.57448 z m -43.30278,0.96161 a 9.5994528,9.0851964 0 0 0 -9.580629,9.10279 9.5994528,9.0851964 0 0 0 0.911168,3.8465 h 26.450611 a 7.7138458,6.1710769 0 0 0 0.40809,-1.98855 v -0.002 a 7.7138458,6.1710769 0 0 0 -7.7286,-6.16003 7.7138458,6.1710769 0 0 0 -1.87429,0.18846 9.5994528,9.0851964 0 0 0 -8.58635,-4.98769 z" /><g
       id="g20"
       stroke="none"
       fill="#000000"
       transform="matrix(0.00545058,0,0,-0.00545058,143.24187,131.47434)"
       style="stroke-width:1.10191"><path
         id="path2"
         d="m 13603,17476 c -89,-28 -203,-97 -316,-189 -61,-50 -243,-300 -603,-827 -50,-74 -139,-220 -196,-325 -121,-218 -404,-719 -585,-1035 -126,-219 -707,-1371 -875,-1735 -196,-423 -294,-653 -413,-965 -34,-91 -86,-212 -114,-269 -28,-57 -51,-117 -51,-132 0,-15 12,-41 26,-58 20,-24 34,-31 63,-31 20,0 47,7 59,16 13,9 50,70 82,135 32,65 105,194 163,286 160,260 160,260 244,395 259,422 539,842 867,1298 240,335 386,541 435,614 48,70 395,623 561,891 48,77 125,202 173,277 140,221 510,981 569,1169 20,65 23,94 23,234 0,137 -3,167 -20,210 -23,56 -32,60 -92,41 z"
         style="stroke-width:1.36469" /><path
         id="path4-3"
         d="m 3247,15723 c -29,-49 -32,-340 -6,-465 17,-81 136,-347 334,-753 94,-193 173,-319 577,-930 165,-250 299,-421 589,-749 63,-71 176,-201 252,-289 76,-89 204,-233 285,-321 81,-88 166,-186 189,-217 71,-97 120,-114 174,-60 43,43 39,83 -14,162 -73,107 -426,805 -577,1139 -207,458 -208,461 -312,641 -106,183 -278,487 -388,684 -40,72 -115,191 -168,265 -190,266 -469,636 -505,667 -91,80 -257,177 -366,214 -63,22 -59,21 -64,12 z"
         style="stroke-width:1.36469" /><path
         id="path6-5"
         d="m 7650,10930 c -395,-36 -852,-192 -1305,-448 -285,-160 -592,-406 -792,-634 -376,-426 -617,-920 -728,-1489 -50,-255 -68,-445 -69,-714 -1,-260 5,-323 49,-562 74,-389 276,-856 606,-1395 153,-251 447,-683 580,-853 143,-184 257,-353 363,-538 37,-64 118,-189 181,-277 115,-161 191,-282 238,-375 57,-114 135,-303 140,-340 8,-50 54,-95 97,-95 16,0 41,10 57,24 24,21 29,34 34,98 4,40 12,124 20,186 21,181 -5,426 -82,770 -47,209 -123,400 -304,762 -137,276 -166,326 -357,610 -503,752 -719,1187 -799,1614 -39,207 -37,525 6,811 79,527 293,963 645,1316 205,206 393,336 705,489 212,105 333,151 510,195 184,47 296,58 493,52 329,-10 632,-102 1082,-327 805,-403 1411,-959 1563,-1435 45,-138 66,-382 48,-547 -22,-198 -105,-484 -200,-683 -84,-177 -222,-392 -407,-636 -226,-297 -344,-429 -734,-824 -399,-403 -537,-557 -687,-766 -243,-339 -373,-613 -440,-928 -25,-113 -27,-147 -27,-321 0,-180 2,-202 26,-290 15,-53 42,-132 61,-178 l 35,-82 -56,-1 c -32,0 -64,-2 -72,-3 -8,-2 -109,-6 -225,-10 -377,-13 -427,-19 -650,-81 -110,-31 -306,-83 -435,-115 -129,-33 -253,-64 -275,-70 -22,-5 -61,-12 -88,-16 -67,-8 -102,-39 -102,-94 0,-61 36,-90 113,-90 62,0 466,-60 608,-91 50,-11 155,-37 235,-60 107,-29 184,-44 299,-55 85,-9 306,-32 490,-51 451,-48 523,-50 685,-24 251,41 389,91 450,163 12,15 46,41 74,58 28,18 59,46 68,63 38,74 23,227 -32,320 -13,24 -62,87 -108,142 -111,133 -270,369 -293,436 -52,151 9,430 146,668 155,271 335,487 724,871 320,316 472,481 663,716 492,610 715,1002 858,1508 72,255 97,424 97,665 1,436 -97,785 -313,1116 -357,548 -954,1039 -1749,1439 -650,327 -1185,454 -1720,406 z"
         style="stroke-width:1.36469" /><path
         id="path8-9"
         d="M 267,10009 C 177,9988 99,9925 52,9837 29,9792 25,9773 25,9700 c 0,-73 4,-93 28,-142 30,-62 84,-116 147,-148 22,-11 152,-59 288,-106 136,-47 348,-121 472,-164 296,-102 417,-132 885,-214 462,-81 801,-113 1389,-129 32,-1 44,5 67,31 32,36 36,60 15,101 -18,34 -48,48 -134,61 -86,14 -701,214 -896,292 -173,69 -513,218 -701,309 -71,34 -227,96 -345,136 -118,41 -339,118 -490,170 -364,127 -393,133 -483,112 z"
         style="stroke-width:1.36469" /><path
         id="path10-8"
         d="m 16700,9694 c -628,-121 -827,-163 -940,-196 -74,-21 -299,-86 -500,-144 -201,-58 -419,-121 -485,-140 -125,-37 -420,-147 -880,-329 -148,-59 -351,-138 -450,-176 -358,-140 -702,-278 -825,-331 -69,-30 -162,-65 -208,-78 -100,-28 -132,-55 -132,-112 0,-28 7,-46 25,-63 31,-32 77,-32 181,-1 43,13 102,26 129,30 97,14 503,88 775,141 379,75 751,144 1100,205 162,28 403,75 535,105 976,222 1042,238 1185,290 359,130 762,302 829,353 104,78 238,247 256,323 6,24 1,28 -74,63 -149,70 -349,93 -521,60 z"
         style="stroke-width:1.36469" /><path
         id="path12-0"
         d="m 8567,9120 c -126,-5 -129,-6 -153,-33 -13,-15 -24,-40 -24,-54 0,-28 95,-273 140,-363 15,-31 70,-102 121,-159 52,-57 130,-153 175,-215 44,-61 113,-154 153,-206 50,-67 105,-162 188,-325 l 116,-230 106,-106 c 133,-133 189,-163 301,-163 61,0 84,5 125,26 135,71 194,215 182,452 -6,137 -25,192 -149,440 -139,275 -294,492 -432,605 -91,75 -318,224 -414,272 -107,55 -207,68 -435,59 z"
         style="stroke-width:1.36469" /><path
         id="path14-2"
         d="m 4999,5590 c -14,-4 -47,-19 -71,-34 -25,-15 -83,-39 -129,-55 -116,-39 -317,-122 -489,-201 -300,-138 -384,-178 -725,-350 -317,-159 -375,-192 -595,-340 -135,-91 -319,-214 -409,-273 -178,-119 -228,-164 -263,-235 -27,-57 -36,-163 -18,-228 25,-89 109,-176 201,-210 24,-9 75,-16 113,-16 58,0 79,5 140,36 104,51 784,512 901,610 55,46 179,150 275,231 318,269 453,380 605,495 83,63 217,168 299,233 83,65 171,129 197,142 78,40 108,100 78,157 -8,16 -69,51 -81,47 -2,0 -15,-4 -29,-9 z"
         style="stroke-width:1.36469" /><path
         id="path16-3"
         d="m 10986,5377 c -19,-19 -26,-36 -26,-66 0,-52 20,-73 140,-147 52,-32 126,-84 165,-114 75,-59 254,-196 530,-405 243,-184 276,-210 513,-405 118,-96 260,-213 317,-260 233,-191 447,-362 487,-389 60,-40 353,-208 543,-311 342,-186 394,-207 491,-195 106,13 200,79 252,178 23,45 27,64 27,137 0,73 -4,93 -28,142 -35,71 -96,125 -207,185 -260,139 -442,240 -571,316 -80,46 -257,142 -394,212 -138,70 -316,163 -397,206 -82,43 -217,116 -300,160 -84,45 -232,126 -328,179 -228,126 -655,349 -796,416 -61,29 -156,80 -210,114 -120,76 -168,87 -208,47 z"
         style="stroke-width:1.36469" /><path
         id="path18-6"
         d="m 6803,2375 c -133,-29 -264,-118 -314,-215 -20,-37 -24,-60 -24,-135 0,-79 3,-97 29,-150 18,-36 56,-87 97,-128 84,-84 176,-130 304,-151 101,-17 396,-38 495,-36 103,3 131,-2 60,-10 -111,-14 -305,-88 -388,-149 -23,-17 -76,-77 -117,-132 -105,-141 -105,-148 18,-271 105,-106 143,-129 315,-188 99,-33 151,-45 255,-56 73,-7 225,-25 339,-40 199,-26 210,-27 285,-12 150,30 248,99 305,216 30,60 33,75 33,157 0,81 -3,97 -32,158 -56,117 -172,207 -313,242 -36,8 -166,29 -290,44 l -225,29 176,1 c 138,1 220,7 380,30 112,16 231,33 264,36 33,4 87,14 120,22 92,22 445,210 513,272 15,13 22,32 22,55 0,22 -8,44 -22,59 -23,25 -354,179 -470,218 -36,12 -134,29 -233,40 -93,11 -208,27 -255,35 -54,10 -195,19 -385,25 -336,9 -627,25 -725,39 -86,13 -142,11 -217,-5 z m 780,-822 c -7,-2 -21,-2 -30,0 -10,3 -4,5 12,5 17,0 24,-2 18,-5 z"
         style="stroke-width:1.36469" /></g></g></g></svg>
